<?xml version="1.0" encoding="UTF-8" standalone="no"?>
<!DOCTYPE svg PUBLIC "-//W3C//DTD SVG 1.1//EN" "http://www.w3.org/Graphics/SVG/1.1/DTD/svg11.dtd">
<svg width="100%" height="100%" viewBox="0 0 278 271" version="1.1" xmlns="http://www.w3.org/2000/svg" xmlns:xlink="http://www.w3.org/1999/xlink" xml:space="preserve" xmlns:serif="http://www.serif.com/" fill="currentColor" style="fill-rule:evenodd;clip-rule:evenodd;stroke-linejoin:round;stroke-miterlimit:2;">
    <g transform="matrix(1,0,0,1,-1115.820905,-555.103876)">
        <g id="Screenshot-2026-05-14-at-7.33.19-PM.png" serif:id="Screenshot 2026-05-14 at 7.33.19 PM.png" transform="matrix(3.149533,0,0,3.149533,942.724652,438.28799)">
            <path d="M59.034,78.5C59.034,88.874 58.124,90.027 61.609,91.159C64.678,92.156 64.392,102.883 66.395,116.516C66.996,120.602 74.818,119.521 75.446,117.484C76.649,113.586 78.845,84.294 81.558,83.673C85.888,82.682 83.025,90.376 80.013,114.439C79.49,118.62 79.233,122.875 74.525,122.95C65.955,123.086 63.372,124.031 62.22,115.538C59.823,97.873 61.391,96.839 57.639,94.274C53.832,91.673 55.339,87.767 54.967,74.502C54.533,59.001 71.673,55.606 81.244,61.888C82.35,62.614 88.138,66.733 88.735,67.158C93.63,70.641 102.084,60.232 106.225,68.624C108.73,73.702 102.952,76.744 102.292,77.092C91.576,82.734 90.287,84.603 80.416,77.606C78.743,76.42 78.826,72.116 83.76,75.073C88.487,77.904 88.745,79.409 93.687,76.876C96.402,75.485 104.657,72.414 102.157,69.832C99.885,67.487 92.406,74.391 88.775,72.048C83.979,68.952 74.699,59.57 64.732,63.999C62.38,65.044 60.904,67.243 60.661,67.605C58.395,70.981 59.048,77.829 59.034,78.5Z"/>
            <path d="M114.5,49.034C101.936,48.754 89.982,49.294 88.413,48.677C88.005,48.516 85.034,44.95 92.5,45.033C135.771,45.514 137.004,43.179 141.069,47.866C143.202,50.326 143.329,50.686 142.954,88.519C142.851,98.918 130.561,96.967 128.5,96.967C90.525,96.968 89.717,97.219 89.309,95.562C88.434,92.006 97.48,92.966 99.5,92.966C136.329,92.966 137.375,93.412 138.557,90.526C139.649,87.858 139.08,87.732 138.963,54.495C138.94,47.833 135.792,49.034 114.5,49.034Z"/>
            <path d="M70.476,37.09C83.602,37.684 83.095,52.122 75.578,55.651C62.002,62.026 53.688,39.653 70.476,37.09ZM70.464,41.116C57.766,44.532 70.114,58.93 76.001,50.181C77.694,47.665 76.542,44.977 76.365,44.564C75.055,41.508 71.008,41.162 70.464,41.116Z"/>
        </g>
    </g>
</svg>
